<svg xmlns="http://www.w3.org/2000/svg" viewBox="0 0 24 24" width="20" height="20" fill="none">
  <defs>
    <linearGradient id="rocketGrad" x1="0%" y1="0%" x2="100%" y2="100%">
      <stop offset="0%" stop-color="#F59E0B" />
      <stop offset="100%" stop-color="#EF4444" />
    </linearGradient>
  </defs>
  <path d="M4.5 16.5C3 18 3 21 3 21C3 21 6 21 7.5 19.5L10.5 16.5L7.5 13.5L4.5 16.5Z" stroke="url(#rocketGrad)" stroke-width="2" stroke-linecap="round" stroke-linejoin="round"/>
  <path d="M14.5 3.5C12 4 9 6.5 7.5 9.5L14.5 16.5C17.5 15 20 12 20.5 9.5C21 7 20 4.5 19.5 3.5C18.5 3 16 2 14.5 3.5Z" stroke="url(#rocketGrad)" stroke-width="2" stroke-linecap="round" stroke-linejoin="round"/>
  <circle cx="15" cy="9" r="1.5" stroke="url(#rocketGrad)" stroke-width="1.5"/>
  <path d="M4 20L2 22" stroke="url(#rocketGrad)" stroke-width="2" stroke-linecap="round"/>
  <path d="M9 18L10 21" stroke="url(#rocketGrad)" stroke-width="2" stroke-linecap="round"/>
  <path d="M6 15L3 14" stroke="url(#rocketGrad)" stroke-width="2" stroke-linecap="round"/>
</svg>
